<svg width="74" height="116" viewBox="0 0 74 116" fill="none" xmlns="http://www.w3.org/2000/svg">
<g filter="url(#filter0_ddii_2517_2785)">
<mask id="path-1-outside-1_2517_2785" maskUnits="userSpaceOnUse" x="10" y="6" width="54" height="96" fill="black">
<rect fill="white" x="10" y="6" width="54" height="96"/>
<path d="M55.674 7.56C57.6367 7.56 59.3433 8.28533 60.794 9.73599C62.2447 11.1867 62.97 12.8933 62.97 14.856V93.704C62.97 95.6667 62.2447 97.3733 60.794 98.824C59.3433 100.275 57.6367 101 55.674 101H43.386C41.4233 101 39.7167 100.275 38.266 98.824C36.8153 97.3733 36.09 95.6667 36.09 93.704V35.72H35.962L17.786 48.264C16.506 49.1173 15.1833 49.2027 13.818 48.52C12.4527 47.752 11.77 46.6 11.77 45.064V31.496C11.77 26.632 13.7753 22.8347 17.786 20.104L30.074 11.656C33.9993 8.92533 38.4367 7.56 43.386 7.56H55.674Z"/>
</mask>
<path d="M55.674 7.56C57.6367 7.56 59.3433 8.28533 60.794 9.73599C62.2447 11.1867 62.97 12.8933 62.97 14.856V93.704C62.97 95.6667 62.2447 97.3733 60.794 98.824C59.3433 100.275 57.6367 101 55.674 101H43.386C41.4233 101 39.7167 100.275 38.266 98.824C36.8153 97.3733 36.09 95.6667 36.09 93.704V35.72H35.962L17.786 48.264C16.506 49.1173 15.1833 49.2027 13.818 48.52C12.4527 47.752 11.77 46.6 11.77 45.064V31.496C11.77 26.632 13.7753 22.8347 17.786 20.104L30.074 11.656C33.9993 8.92533 38.4367 7.56 43.386 7.56H55.674Z" fill="url(#paint0_linear_2517_2785)"/>
<path d="M60.794 9.73599L61.5011 9.02888L60.794 9.73599ZM38.266 98.824L38.9731 98.1169L38.266 98.824ZM36.09 35.72H37.09V34.72H36.09V35.72ZM35.962 35.72V34.72H35.6504L35.394 34.897L35.962 35.72ZM17.786 48.264L18.3407 49.096L18.3474 49.0916L18.354 49.087L17.786 48.264ZM13.818 48.52L13.3277 49.3916L13.349 49.4035L13.3708 49.4144L13.818 48.52ZM17.786 20.104L18.3488 20.9306L18.3525 20.928L17.786 20.104ZM30.074 11.656L30.6405 12.4801L30.6451 12.4769L30.074 11.656ZM55.674 7.56V8.56C57.3584 8.56 58.8143 9.17051 60.0869 10.4431L60.794 9.73599L61.5011 9.02888C59.8724 7.40015 57.915 6.56 55.674 6.56V7.56ZM60.794 9.73599L60.0869 10.4431C61.3595 11.7157 61.97 13.1716 61.97 14.856H62.97H63.97C63.97 12.615 63.1298 10.6576 61.5011 9.02888L60.794 9.73599ZM62.97 14.856H61.97V93.704H62.97H63.97V14.856H62.97ZM62.97 93.704H61.97C61.97 95.3884 61.3595 96.8443 60.0869 98.1169L60.794 98.824L61.5011 99.5311C63.1298 97.9024 63.97 95.945 63.97 93.704H62.97ZM60.794 98.824L60.0869 98.1169C58.8143 99.3895 57.3584 100 55.674 100V101V102C57.915 102 59.8724 101.16 61.5011 99.5311L60.794 98.824ZM55.674 101V100H43.386V101V102H55.674V101ZM43.386 101V100C41.7016 100 40.2457 99.3895 38.9731 98.1169L38.266 98.824L37.5589 99.5311C39.1876 101.16 41.145 102 43.386 102V101ZM38.266 98.824L38.9731 98.1169C37.7005 96.8443 37.09 95.3884 37.09 93.704H36.09H35.09C35.09 95.945 35.9302 97.9024 37.5589 99.5311L38.266 98.824ZM36.09 93.704H37.09V35.72H36.09H35.09V93.704H36.09ZM36.09 35.72V34.72H35.962V35.72V36.72H36.09V35.72ZM35.962 35.72L35.394 34.897L17.218 47.441L17.786 48.264L18.354 49.087L36.53 36.543L35.962 35.72ZM17.786 48.264L17.2313 47.4319C16.247 48.0882 15.3065 48.1462 14.2652 47.6256L13.818 48.52L13.3708 49.4144C15.0602 50.2591 16.765 50.1465 18.3407 49.096L17.786 48.264ZM13.818 48.52L14.3083 47.6484C13.25 47.0532 12.77 46.2299 12.77 45.064H11.77H10.77C10.77 46.9701 11.6553 48.4508 13.3277 49.3916L13.818 48.52ZM11.77 45.064H12.77V31.496H11.77H10.77V45.064H11.77ZM11.77 31.496H12.77C12.77 26.9619 14.6125 23.4745 18.3488 20.9306L17.786 20.104L17.2232 19.2774C12.9382 22.1948 10.77 26.3021 10.77 31.496H11.77ZM17.786 20.104L18.3525 20.928L30.6405 12.48L30.074 11.656L29.5075 10.832L17.2195 19.28L17.786 20.104ZM30.074 11.656L30.6451 12.4769C34.3966 9.86711 38.6332 8.56 43.386 8.56V7.56V6.56C38.2401 6.56 33.602 7.98355 29.5029 10.8351L30.074 11.656ZM43.386 7.56V8.56H55.674V7.56V6.56H43.386V7.56Z" fill="url(#paint1_linear_2517_2785)" mask="url(#path-1-outside-1_2517_2785)"/>
</g>
<defs>
<filter id="filter0_ddii_2517_2785" x="0.769531" y="0.55957" width="73.2012" height="115.44" filterUnits="userSpaceOnUse" color-interpolation-filters="sRGB">
<feFlood flood-opacity="0" result="BackgroundImageFix"/>
<feColorMatrix in="SourceAlpha" type="matrix" values="0 0 0 0 0 0 0 0 0 0 0 0 0 0 0 0 0 0 127 0" result="hardAlpha"/>
<feOffset dy="4"/>
<feGaussianBlur stdDeviation="5"/>
<feComposite in2="hardAlpha" operator="out"/>
<feColorMatrix type="matrix" values="0 0 0 0 0 0 0 0 0 0 0 0 0 0 0 0 0 0 0.3 0"/>
<feBlend mode="normal" in2="BackgroundImageFix" result="effect1_dropShadow_2517_2785"/>
<feColorMatrix in="SourceAlpha" type="matrix" values="0 0 0 0 0 0 0 0 0 0 0 0 0 0 0 0 0 0 127 0" result="hardAlpha"/>
<feOffset dy="4"/>
<feComposite in2="hardAlpha" operator="out"/>
<feColorMatrix type="matrix" values="0 0 0 0 0.793077 0 0 0 0 0 0 0 0 0 0.711858 0 0 0 1 0"/>
<feBlend mode="normal" in2="effect1_dropShadow_2517_2785" result="effect2_dropShadow_2517_2785"/>
<feBlend mode="normal" in="SourceGraphic" in2="effect2_dropShadow_2517_2785" result="shape"/>
<feColorMatrix in="SourceAlpha" type="matrix" values="0 0 0 0 0 0 0 0 0 0 0 0 0 0 0 0 0 0 127 0" result="hardAlpha"/>
<feOffset dy="4"/>
<feGaussianBlur stdDeviation="2"/>
<feComposite in2="hardAlpha" operator="arithmetic" k2="-1" k3="1"/>
<feColorMatrix type="matrix" values="0 0 0 0 1 0 0 0 0 1 0 0 0 0 1 0 0 0 0.45 0"/>
<feBlend mode="normal" in2="shape" result="effect3_innerShadow_2517_2785"/>
<feColorMatrix in="SourceAlpha" type="matrix" values="0 0 0 0 0 0 0 0 0 0 0 0 0 0 0 0 0 0 127 0" result="hardAlpha"/>
<feOffset dy="-5"/>
<feGaussianBlur stdDeviation="2"/>
<feComposite in2="hardAlpha" operator="arithmetic" k2="-1" k3="1"/>
<feColorMatrix type="matrix" values="0 0 0 0 0 0 0 0 0 0 0 0 0 0 0 0 0 0 0.05 0"/>
<feBlend mode="normal" in2="effect3_innerShadow_2517_2785" result="effect4_innerShadow_2517_2785"/>
</filter>
<linearGradient id="paint0_linear_2517_2785" x1="42.5" y1="9" x2="42.5" y2="102" gradientUnits="userSpaceOnUse">
<stop stop-color="#FF59EE"/>
<stop offset="1" stop-color="#7000FF"/>
</linearGradient>
<linearGradient id="paint1_linear_2517_2785" x1="42.5" y1="-42" x2="42.5" y2="148" gradientUnits="userSpaceOnUse">
<stop stop-color="#FF59EE"/>
<stop offset="1" stop-color="#7000FF"/>
</linearGradient>
</defs>
</svg>
