<svg width="28" height="30" viewBox="0 0 28 30" fill="none" xmlns="http://www.w3.org/2000/svg">
<path d="M16.0615 2.20996C14.6654 1.52008 13.027 1.52008 11.6309 2.20996L3.78516 6.08691C2.07978 6.92961 1.00012 8.66714 1 10.5693V19.4971C1.00016 21.4083 2.08993 23.1522 3.80762 23.9902L11.6543 27.8184C13.0376 28.493 14.6548 28.493 16.0381 27.8184L23.8848 23.9902C25.6025 23.1522 26.6922 21.4083 26.6924 19.4971V10.5693C26.6923 8.66714 25.6126 6.92961 23.9072 6.08691L16.0615 2.20996Z" stroke="#555555" stroke-width="2"/>
<path d="M13.8467 13.6582V28M13.8467 13.6582L26.3467 8M13.8467 13.6582L1.34668 8" stroke="#555555" stroke-width="2"/>
</svg>
