<svg width="42" height="41" viewBox="0 0 42 41" fill="none" xmlns="http://www.w3.org/2000/svg">
<path d="M20.0967 6.08887C20.3983 5.17244 21.6954 5.17244 21.9971 6.08887L24.8545 14.7793C25.1521 15.6844 25.8625 16.3947 26.7676 16.6924L35.458 19.5498C36.3744 19.8514 36.3744 21.1486 35.458 21.4502L26.7676 24.3076C25.8625 24.6053 25.1521 25.3156 24.8545 26.2207L21.9971 34.9111C21.6954 35.8276 20.3983 35.8276 20.0967 34.9111L17.2393 26.2207C16.9416 25.3156 16.2312 24.6053 15.3262 24.3076L6.63574 21.4502C5.71932 21.1486 5.71932 19.8514 6.63574 19.5498L15.3262 16.6924C16.2312 16.3947 16.9416 15.6844 17.2393 14.7793L20.0967 6.08887Z" stroke="black" stroke-opacity="0.5" stroke-width="2"/>
<path d="M6.65579 3.60088C6.85504 2.86087 7.90496 2.86087 8.10421 3.60088L8.83327 6.30865C8.90277 6.56675 9.10438 6.76837 9.36249 6.83786L12.0703 7.56692C12.8103 7.76617 12.8103 8.81609 12.0703 9.01534L9.36249 9.7444C9.10438 9.8139 8.90277 10.0155 8.83327 10.2736L8.10421 12.9814C7.90496 13.7214 6.85504 13.7214 6.65579 12.9814L5.92673 10.2736C5.85723 10.0155 5.65562 9.8139 5.39751 9.7444L2.68975 9.01534C1.94973 8.8161 1.94973 7.76617 2.68974 7.56692L5.39751 6.83786C5.65562 6.76837 5.85723 6.56675 5.92673 6.30865L6.65579 3.60088Z" fill="black" fill-opacity="0.5"/>
</svg>
