<svg width="24" height="24" viewBox="0 0 24 24" fill="none" xmlns="http://www.w3.org/2000/svg">
<path d="M23.3181 23.3181C23.837 22.7956 23.8355 21.9518 23.3148 21.4311L20.5027 18.619C22.039 16.6953 22.9608 14.2505 22.9608 11.6054C22.9608 5.33989 17.8709 0.25 11.6054 0.25C5.33989 0.25 0.25 5.33989 0.25 11.6054C0.25 17.8709 5.33989 22.9608 11.6054 22.9608C14.2505 22.9608 16.6953 22.039 18.619 20.516L21.4245 23.3215C21.9478 23.8448 22.7967 23.8433 23.3181 23.3181ZM11.6054 20.2889C6.82277 20.2889 2.92186 16.388 2.92186 11.6054C2.92186 6.82277 6.82277 2.92186 11.6054 2.92186C16.388 2.92186 20.2889 6.82277 20.2889 11.6054C20.2889 16.388 16.388 20.2889 11.6054 20.2889Z" fill="#0099FF" stroke="#0099FF" stroke-width="0.5"/>
</svg>
