<svg width="30" height="30" viewBox="0 0 30 30" fill="none" xmlns="http://www.w3.org/2000/svg">
<mask id="path-1-outside-1_14736_4611" maskUnits="userSpaceOnUse" x="0" y="0" width="30" height="30" fill="black">
<rect fill="white" width="30" height="30"/>
<path d="M2.46191 2.02832C2.56436 1.99729 2.67319 1.99157 2.77832 2.01172L8.77637 3.22852C9.09679 3.28974 9.38368 3.46637 9.58301 3.72461L12.7178 7.77246L12.916 8.03027L13.1211 8.29492L16.4414 12.5801L16.6533 12.8516L16.8643 13.1221L18.8457 15.6816L20.2393 14.2891C20.3619 14.1664 20.5077 14.0694 20.668 14.0029C20.8284 13.9365 21.0011 13.9023 21.1748 13.9023C21.3484 13.9024 21.5203 13.9365 21.6807 14.0029C21.8409 14.0693 21.9867 14.1664 22.1094 14.2891C22.2322 14.4118 22.33 14.5583 22.3965 14.7188C22.4629 14.8791 22.4971 15.0511 22.4971 15.2246C22.4971 15.3982 22.4629 15.5701 22.3965 15.7305C22.33 15.8909 22.2322 16.0364 22.1094 16.1592L20.5527 17.7148L24.6357 21.7979L24.8701 21.5635C24.9929 21.4407 25.1394 21.3428 25.2998 21.2764C25.4601 21.21 25.6321 21.1758 25.8057 21.1758C25.9792 21.1758 26.1512 21.21 26.3115 21.2764C26.4719 21.3428 26.6175 21.4407 26.7402 21.5635C26.8631 21.6862 26.9608 21.8318 27.0273 21.9922C27.0938 22.1525 27.1279 22.3245 27.1279 22.498C27.1279 22.6717 27.0938 22.8444 27.0273 23.0049C26.9609 23.1652 26.863 23.3109 26.7402 23.4336L23.4336 26.7402C23.1855 26.9875 22.8493 27.1262 22.499 27.126C22.1489 27.1257 21.8131 26.9867 21.5654 26.7393C21.3176 26.4915 21.178 26.1551 21.1777 25.8047C21.1775 25.4544 21.3162 25.1182 21.5635 24.8701L21.7969 24.6357L17.7148 20.5527L16.1572 22.1113C15.9091 22.3587 15.5731 22.4983 15.2227 22.498C14.8724 22.4977 14.5368 22.3579 14.2891 22.1104C14.0413 21.8626 13.9016 21.5262 13.9014 21.1758C13.9012 20.8255 14.0398 20.4893 14.2871 20.2412L15.6836 18.8438L13.6523 17.2666L13.3877 17.0684L13.123 16.8633L7.59473 12.5781L7.32324 12.3662L7.05176 12.1611L3.72559 9.58203C3.46735 9.3827 3.29071 9.09582 3.22949 8.77539L2.0127 2.77734C1.99147 2.67212 1.99716 2.56268 2.02832 2.45996C2.05951 2.35743 2.11542 2.26405 2.19141 2.18848C2.26733 2.11425 2.36028 2.05915 2.46191 2.02832Z"/>
</mask>
<path d="M2.46191 2.02832L1.88219 0.114184L1.8813 0.114452L2.46191 2.02832ZM2.77832 2.01172L3.17595 0.0516449L3.16533 0.0494895L3.15468 0.0474494L2.77832 2.01172ZM8.77637 3.22852L8.37874 5.18859L8.38987 5.19085L8.40104 5.19298L8.77637 3.22852ZM9.58301 3.72461L7.99978 4.94666L8.00174 4.94919L9.58301 3.72461ZM12.7178 7.77246L14.3033 6.55332L14.299 6.54788L12.7178 7.77246ZM12.916 8.03027L11.3305 9.24941L11.3351 9.25533L12.916 8.03027ZM13.1211 8.29492L14.702 7.06994L14.702 7.06987L13.1211 8.29492ZM16.4414 12.5801L14.8604 13.8051L14.8648 13.8107L16.4414 12.5801ZM16.6533 12.8516L18.2305 11.6217L18.2299 11.6209L16.6533 12.8516ZM16.8643 13.1221L18.4458 11.8978L18.4414 11.8922L16.8643 13.1221ZM18.8457 15.6816L17.2642 16.9059L18.6538 18.7009L20.2594 17.0963L18.8457 15.6816ZM20.2393 14.2891L21.653 15.7038L21.6535 15.7033L20.2393 14.2891ZM20.668 14.0029L19.9025 12.1552L19.9018 12.1555L20.668 14.0029ZM21.1748 13.9023L21.1752 11.9023H21.1748V13.9023ZM21.6807 14.0029L22.4463 12.1553L22.4461 12.1552L21.6807 14.0029ZM22.1094 14.2891L20.6955 15.7036L20.6957 15.7038L22.1094 14.2891ZM22.3965 14.7188L24.2443 13.9536L24.2441 13.9531L22.3965 14.7188ZM22.4971 15.2246L24.4971 15.2248V15.2246H22.4971ZM22.3965 15.7305L24.2441 16.4962L24.2442 16.496L22.3965 15.7305ZM22.1094 16.1592L23.5231 17.5738L23.5232 17.5738L22.1094 16.1592ZM20.5527 17.7148L19.139 16.3002L17.7239 17.7144L19.1385 19.1291L20.5527 17.7148ZM24.6357 21.7979L23.2215 23.2121L24.6357 24.6263L26.05 23.2121L24.6357 21.7979ZM24.8701 21.5635L26.2843 22.9777L26.2844 22.9776L24.8701 21.5635ZM25.2998 21.2764L24.535 19.4284L24.5344 19.4286L25.2998 21.2764ZM25.8057 21.1758L25.8059 19.1758H25.8057V21.1758ZM26.3115 21.2764L27.077 19.4286L27.0767 19.4285L26.3115 21.2764ZM26.7402 21.5635L25.3261 22.9777L25.3265 22.9782L26.7402 21.5635ZM27.0273 21.9922L28.875 21.2265L28.8749 21.2263L27.0273 21.9922ZM27.1279 22.498H29.1279V22.4975L27.1279 22.498ZM27.0273 23.0049L28.8747 23.7711L28.875 23.7706L27.0273 23.0049ZM26.7402 23.4336L25.3265 22.0189L25.326 22.0194L26.7402 23.4336ZM23.4336 26.7402L24.8455 28.1568L24.8478 28.1544L23.4336 26.7402ZM22.499 27.126L22.4973 29.126H22.4976L22.499 27.126ZM21.5654 26.7393L20.1512 28.1535L20.1518 28.1541L21.5654 26.7393ZM21.1777 25.8047L19.1777 25.8061V25.8061L21.1777 25.8047ZM21.5635 24.8701L22.98 26.282L22.9806 26.2814L21.5635 24.8701ZM21.7969 24.6357L23.214 26.047L24.6222 24.633L23.2113 23.2217L21.7969 24.6357ZM17.7148 20.5527L19.1292 19.1387L17.7146 17.7237L16.3002 19.139L17.7148 20.5527ZM16.1572 22.1113L17.5694 23.5276L17.5719 23.5251L16.1572 22.1113ZM15.2227 22.498L15.2209 24.498H15.2212L15.2227 22.498ZM14.2891 22.1104L12.8748 23.5246L12.8752 23.5249L14.2891 22.1104ZM13.9014 21.1758L11.9014 21.1767L11.9014 21.1772L13.9014 21.1758ZM14.2871 20.2412L12.8724 18.8275L12.8708 18.8291L14.2871 20.2412ZM15.6836 18.8438L17.0983 20.2575L18.7005 18.6541L16.9102 17.264L15.6836 18.8438ZM13.6523 17.2666L14.8789 15.6869L14.8652 15.6763L14.8514 15.6659L13.6523 17.2666ZM13.3877 17.0684L12.1626 18.6493L12.1756 18.6593L12.1886 18.6691L13.3877 17.0684ZM13.123 16.8633L11.8978 18.444L11.898 18.4442L13.123 16.8633ZM7.59473 12.5781L6.36409 14.1547L6.36946 14.1589L7.59473 12.5781ZM7.32324 12.3662L8.55387 10.7896L8.54138 10.7799L8.52875 10.7704L7.32324 12.3662ZM7.05176 12.1611L5.82622 13.7417L5.83619 13.7494L5.84625 13.757L7.05176 12.1611ZM3.72559 9.58203L4.95112 8.0015L4.94763 7.9988L3.72559 9.58203ZM3.22949 8.77539L5.19396 8.40006L5.19183 8.3889L5.18957 8.37776L3.22949 8.77539ZM2.0127 2.77734L0.052187 3.17283L0.0526215 3.17498L2.0127 2.77734ZM2.02832 2.45996L0.11491 1.87784L0.114452 1.87935L2.02832 2.45996ZM2.19141 2.18848L0.79321 0.758425L0.787124 0.764376L0.781089 0.770378L2.19141 2.18848ZM2.46191 2.02832L3.04164 3.94246C2.83429 4.00526 2.61502 4.01681 2.40196 3.97599L2.77832 2.01172L3.15468 0.0474494C2.73135 -0.0336607 2.29444 -0.0106726 1.88219 0.114184L2.46191 2.02832ZM2.77832 2.01172L2.38069 3.97179L8.37874 5.18859L8.77637 3.22852L9.174 1.26844L3.17595 0.0516449L2.77832 2.01172ZM8.77637 3.22852L8.40104 5.19298C8.24056 5.16232 8.09822 5.07419 7.99978 4.94665L9.58301 3.72461L11.1662 2.50256C10.6691 1.85856 9.95303 1.41715 9.1517 1.26405L8.77637 3.22852ZM9.58301 3.72461L8.00174 4.94919L11.1365 8.99704L12.7178 7.77246L14.299 6.54788L11.1643 2.50003L9.58301 3.72461ZM12.7178 7.77246L11.1323 8.99159L11.3305 9.2494L12.916 8.03027L14.5015 6.81114L14.3032 6.55333L12.7178 7.77246ZM12.916 8.03027L11.3351 9.25533L11.5402 9.51997L13.1211 8.29492L14.702 7.06987L14.4969 6.80522L12.916 8.03027ZM13.1211 8.29492L11.5401 9.51991L14.8605 13.8051L16.4414 12.5801L18.0224 11.3551L14.702 7.06994L13.1211 8.29492ZM16.4414 12.5801L14.8648 13.8107L15.0768 14.0822L16.6533 12.8516L18.2299 11.6209L18.018 11.3495L16.4414 12.5801ZM16.6533 12.8516L15.0761 14.0814L15.2871 14.3519L16.8643 13.1221L18.4414 11.8922L18.2305 11.6217L16.6533 12.8516ZM16.8643 13.1221L15.2828 14.3464L17.2642 16.9059L18.8457 15.6816L20.4272 14.4574L18.4458 11.8978L16.8643 13.1221ZM18.8457 15.6816L20.2594 17.0963L21.653 15.7038L20.2393 14.2891L18.8255 12.8744L17.432 14.2669L18.8457 15.6816ZM20.2393 14.2891L21.6535 15.7033C21.5885 15.7682 21.5135 15.8174 21.4341 15.8504L20.668 14.0029L19.9018 12.1555C19.502 12.3213 19.1353 12.5646 18.8251 12.8748L20.2393 14.2891ZM20.668 14.0029L21.4334 15.8507C21.3495 15.8854 21.262 15.9023 21.1748 15.9023V13.9023V11.9023C20.7403 11.9023 20.3074 11.9875 19.9025 12.1552L20.668 14.0029ZM21.1748 13.9023L21.1744 15.9023C21.0862 15.9023 20.9981 15.885 20.9152 15.8507L21.6807 14.0029L22.4461 12.1552C22.0425 11.988 21.6105 11.9024 21.1752 11.9023L21.1748 13.9023ZM21.6807 14.0029L20.915 15.8506C20.8347 15.8173 20.7598 15.7678 20.6955 15.7036L22.1094 14.2891L23.5233 12.8745C23.2136 12.565 22.8472 12.3214 22.4463 12.1553L21.6807 14.0029ZM22.1094 14.2891L20.6957 15.7038C20.6319 15.6401 20.5826 15.5658 20.5489 15.4844L22.3965 14.7188L24.2441 13.9531C24.0774 13.5508 23.8326 13.1836 23.5231 12.8744L22.1094 14.2891ZM22.3965 14.7188L20.5486 15.4839C20.5146 15.4016 20.4971 15.3136 20.4971 15.2246H22.4971H24.4971C24.4971 14.7885 24.4112 14.3566 24.2443 13.9536L22.3965 14.7188ZM22.4971 15.2246L20.4971 15.2244C20.4971 15.136 20.5145 15.0478 20.5488 14.9649L22.3965 15.7305L24.2442 16.496C24.4114 16.0924 24.497 15.6604 24.4971 15.2248L22.4971 15.2246ZM22.3965 15.7305L20.5489 14.9648C20.5842 14.8794 20.6349 14.8051 20.6956 14.7446L22.1094 16.1592L23.5232 17.5738C23.8295 17.2677 24.0758 16.9024 24.2441 16.4962L22.3965 15.7305ZM22.1094 16.1592L20.6956 14.7445L19.139 16.3002L20.5527 17.7148L21.9665 19.1295L23.5231 17.5738L22.1094 16.1592ZM20.5527 17.7148L19.1385 19.1291L23.2215 23.2121L24.6357 21.7979L26.05 20.3836L21.9669 16.3006L20.5527 17.7148ZM24.6357 21.7979L26.05 23.2121L26.2843 22.9777L24.8701 21.5635L23.4559 20.1493L23.2215 20.3836L24.6357 21.7979ZM24.8701 21.5635L26.2844 22.9776C26.2214 23.0407 26.1473 23.0901 26.0652 23.1241L25.2998 21.2764L24.5344 19.4286C24.1314 19.5956 23.7645 19.8407 23.4558 20.1494L24.8701 21.5635ZM25.2998 21.2764L26.0646 23.1243C25.9828 23.1582 25.8949 23.1758 25.8057 23.1758V21.1758V19.1758C25.3694 19.1758 24.9375 19.2618 24.535 19.4284L25.2998 21.2764ZM25.8057 21.1758L25.8055 23.1758C25.7168 23.1758 25.6288 23.1583 25.5463 23.1242L26.3115 21.2764L27.0767 19.4285C26.6735 19.2616 26.2416 19.1758 25.8059 19.1758L25.8057 21.1758ZM26.3115 21.2764L25.5461 23.1241C25.4599 23.0884 25.3859 23.0376 25.3261 22.9777L26.7402 21.5635L28.1544 20.1492C27.849 19.8438 27.4839 19.5972 27.077 19.4286L26.3115 21.2764ZM26.7402 21.5635L25.3265 22.9782C25.2657 22.9174 25.215 22.8431 25.1798 22.758L27.0273 21.9922L28.8749 21.2263C28.7067 20.8204 28.4605 20.4551 28.154 20.1488L26.7402 21.5635ZM27.0273 21.9922L25.1797 22.7579C25.1452 22.6746 25.128 22.5864 25.1279 22.4986L27.1279 22.498L29.1279 22.4975C29.1278 22.0625 29.0424 21.6305 28.875 21.2265L27.0273 21.9922ZM27.1279 22.498H25.1279C25.1279 22.4111 25.1448 22.3234 25.1797 22.2392L27.0273 23.0049L28.875 23.7706C29.0429 23.3654 29.1279 22.9324 29.1279 22.498H27.1279ZM27.0273 23.0049L25.1799 22.2386C25.215 22.154 25.2654 22.08 25.3265 22.0189L26.7402 23.4336L28.154 24.8483C28.4606 24.5419 28.7067 24.1764 28.8747 23.7711L27.0273 23.0049ZM26.7402 23.4336L25.326 22.0194L22.0194 25.326L23.4336 26.7402L24.8478 28.1544L28.1544 24.8478L26.7402 23.4336ZM23.4336 26.7402L22.0217 25.3237C22.149 25.1968 22.3213 25.1258 22.5004 25.126L22.499 27.126L22.4976 29.126C23.3774 29.1266 24.2219 28.7783 24.8455 28.1568L23.4336 26.7402ZM22.499 27.126L22.5007 25.126C22.6792 25.1261 22.8515 25.197 22.9791 25.3245L21.5654 26.7393L20.1518 28.1541C20.7747 28.7765 21.6185 29.1252 22.4973 29.126L22.499 27.126ZM21.5654 26.7393L22.9796 25.325C23.1061 25.4515 23.1776 25.623 23.1777 25.8033L21.1777 25.8047L19.1777 25.8061C19.1784 26.6872 19.5292 27.5315 20.1512 28.1535L21.5654 26.7393ZM21.1777 25.8047L23.1777 25.8033C23.1779 25.9824 23.1069 26.1547 22.98 26.282L21.5635 24.8701L20.147 23.4582C19.5254 24.0818 19.1771 24.9263 19.1777 25.8061L21.1777 25.8047ZM21.5635 24.8701L22.9806 26.2814L23.214 26.047L21.7969 24.6357L20.3797 23.2245L20.1463 23.4589L21.5635 24.8701ZM21.7969 24.6357L23.2113 23.2217L19.1292 19.1387L17.7148 20.5527L16.3005 21.9668L20.3825 26.0498L21.7969 24.6357ZM17.7148 20.5527L16.3002 19.139L14.7426 20.6976L16.1572 22.1113L17.5719 23.5251L19.1295 21.9665L17.7148 20.5527ZM16.1572 22.1113L14.7451 20.6951C14.87 20.5705 15.0415 20.4979 15.2241 20.498L15.2227 22.498L15.2212 24.498C16.1046 24.4987 16.9482 24.147 17.5694 23.5276L16.1572 22.1113ZM15.2227 22.498L15.2244 20.498C15.4063 20.4982 15.5778 20.5707 15.7029 20.6958L14.2891 22.1104L12.8752 23.5249C13.4957 24.1452 14.3385 24.4973 15.2209 24.498L15.2227 22.498ZM14.2891 22.1104L15.7033 20.6961C15.8297 20.8225 15.9012 20.9941 15.9014 21.1744L13.9014 21.1758L11.9014 21.1772C11.902 22.0583 12.2529 22.9026 12.8748 23.5246L14.2891 22.1104ZM13.9014 21.1758L15.9014 21.1749C15.9014 21.3531 15.831 21.5254 15.7034 21.6534L14.2871 20.2412L12.8708 18.8291C12.2486 19.4531 11.901 20.2979 11.9014 21.1767L13.9014 21.1758ZM14.2871 20.2412L15.7018 21.6549L17.0983 20.2575L15.6836 18.8438L14.2689 17.43L12.8724 18.8275L14.2871 20.2412ZM15.6836 18.8438L16.9102 17.264L14.8789 15.6869L13.6523 17.2666L12.4258 18.8463L14.457 20.4235L15.6836 18.8438ZM13.6523 17.2666L14.8514 15.6659L14.5868 15.4677L13.3877 17.0684L12.1886 18.6691L12.4533 18.8673L13.6523 17.2666ZM13.3877 17.0684L14.6127 15.4875L14.3481 15.2824L13.123 16.8633L11.898 18.4442L12.1626 18.6493L13.3877 17.0684ZM13.123 16.8633L14.3483 15.2825L8.82 10.9974L7.59473 12.5781L6.36946 14.1589L11.8978 18.444L13.123 16.8633ZM7.59473 12.5781L8.82535 11.0016L8.55387 10.7896L7.32324 12.3662L6.09261 13.9428L6.3641 14.1547L7.59473 12.5781ZM7.32324 12.3662L8.52875 10.7704L8.25726 10.5653L7.05176 12.1611L5.84625 13.757L6.11774 13.9621L7.32324 12.3662ZM7.05176 12.1611L8.27729 10.5806L4.95112 8.0015L3.72559 9.58203L2.50005 11.1626L5.82622 13.7417L7.05176 12.1611ZM3.72559 9.58203L4.94763 7.9988C5.07516 8.09724 5.1633 8.23959 5.19396 8.40006L3.22949 8.77539L1.26503 9.15072C1.41813 9.95205 1.85953 10.6682 2.50354 11.1653L3.72559 9.58203ZM3.22949 8.77539L5.18957 8.37776L3.97277 2.37971L2.0127 2.77734L0.0526215 3.17498L1.26942 9.17302L3.22949 8.77539ZM2.0127 2.77734L3.9732 2.38185C4.01854 2.60662 4.00532 2.83247 3.94219 3.04057L2.02832 2.45996L0.114452 1.87935C-0.0110042 2.29289 -0.0356066 2.73762 0.052188 3.17283L2.0127 2.77734ZM2.02832 2.45996L3.94173 3.04208C3.87776 3.25235 3.76218 3.447 3.60172 3.60658L2.19141 2.18848L0.781089 0.770378C0.468656 1.0811 0.241265 1.46252 0.11491 1.87784L2.02832 2.45996ZM2.19141 2.18848L3.5896 3.61853C3.43648 3.76824 3.24922 3.87948 3.04253 3.94219L2.46191 2.02832L1.8813 0.114452C1.47134 0.238822 1.09818 0.460251 0.79321 0.758425L2.19141 2.18848Z" fill="#0047FF" mask="url(#path-1-outside-1_14736_4611)"/>
</svg>
