<svg width="34" height="30" viewBox="0 0 34 30" fill="none" xmlns="http://www.w3.org/2000/svg">
<path d="M22.4123 11.9016L23.0129 12.678C23.2713 12.4625 23.5598 12.2874 23.8684 12.1594C24.2731 11.9917 24.7074 11.9065 25.1418 11.9065C25.5225 11.9066 25.9011 11.9725 26.26 12.1008L26.4133 12.1594L26.5617 12.2258C26.9044 12.3878 27.2186 12.6076 27.4895 12.8782C27.7602 13.1487 27.982 13.464 28.1447 13.8078L28.2111 13.9573C28.3779 14.3601 28.4641 14.7928 28.4641 15.2287C28.464 15.6099 28.3982 15.9888 28.2697 16.3479L28.2111 16.5002C28.0428 16.9063 27.7966 17.2723 27.4904 17.5783L27.3479 17.719L28.9201 19.2912C29.1975 19.2176 29.4842 19.1799 29.7727 19.1799C30.1538 19.18 30.5322 19.2461 30.8908 19.3742L31.0442 19.4328L31.1945 19.4992C31.5409 19.6634 31.8533 19.8857 32.1203 20.1526C32.3886 20.4206 32.6116 20.7342 32.7756 21.0803L32.842 21.2307L32.9006 21.383C33.0109 21.6912 33.075 22.0135 33.091 22.3391L33.0949 22.5022C33.0949 22.9363 33.0098 23.3696 32.842 23.7746C32.6739 24.1797 32.4278 24.5465 32.1213 24.8528L32.1203 24.8518L28.8147 28.1584L28.8127 28.1614C28.1892 28.7827 27.3437 29.1307 26.4641 29.1301C25.5854 29.1292 24.7412 28.7807 24.1184 28.1584C23.4966 27.5366 23.1455 26.6916 23.1447 25.8108C23.1445 25.5211 23.1824 25.2346 23.2551 24.9592L21.6818 23.386L21.5393 23.5295L21.5363 23.5315C20.9152 24.1507 20.071 24.5028 19.1877 24.5022C18.3055 24.5013 17.4625 24.1496 16.842 23.5295C16.2202 22.9077 15.8692 22.0627 15.8684 21.1819C15.868 20.3991 16.1438 19.642 16.6438 19.0451L16.3928 18.8508L16.1555 18.6731L16.1428 18.6633L16.1291 18.6535L14.9113 17.7092L16.5451 16.4446L17.3547 17.0725L17.6193 17.2707L19.6506 18.8479L18.2541 20.2453C18.0069 20.4934 17.8682 20.8298 17.8684 21.1799C17.8687 21.5302 18.0083 21.8668 18.2561 22.1145C18.4727 22.331 18.7567 22.4649 19.0588 22.4953L19.1897 22.5022C19.4962 22.5024 19.7922 22.3957 20.0275 22.2033L20.1242 22.1155L21.6818 20.5569L25.7639 24.6399L25.5305 24.8742L25.4426 24.9709C25.2505 25.2062 25.1445 25.5024 25.1447 25.8088C25.1451 26.1591 25.2847 26.4957 25.5324 26.7434C25.749 26.9598 26.0331 27.093 26.3352 27.1233L26.466 27.1301C26.7725 27.1303 27.0686 27.0244 27.3039 26.8323L27.4006 26.7444L30.7072 23.4377C30.7993 23.3457 30.8774 23.2405 30.9387 23.1262L30.9943 23.009C31.0442 22.8888 31.0754 22.7613 31.0881 22.6321L31.0949 22.5022C31.0949 22.3287 31.0608 22.1566 30.9943 21.9963C30.9445 21.8761 30.8765 21.7645 30.7942 21.6643L30.7072 21.5676C30.5845 21.4449 30.4389 21.3469 30.2785 21.2805C30.1182 21.2141 29.9462 21.1799 29.7727 21.1799C29.5992 21.1799 29.4271 21.2142 29.2668 21.2805C29.1065 21.347 28.9598 21.4449 28.8371 21.5676L28.6027 21.802L24.5197 17.719L26.0764 16.1633C26.1685 16.0713 26.2465 15.9661 26.3078 15.8518L26.3635 15.7346C26.4133 15.6145 26.4445 15.4876 26.4572 15.3586L26.4641 15.2287C26.4641 15.0553 26.4298 14.8832 26.3635 14.7229C26.297 14.5624 26.1992 14.416 26.0764 14.2932C25.9537 14.1706 25.8079 14.0735 25.6477 14.0071C25.4874 13.9407 25.3153 13.9065 25.1418 13.9065C24.9682 13.9065 24.7953 13.9406 24.635 14.0071C24.4749 14.0735 24.3288 14.1706 24.2063 14.2932L22.8127 15.6858L20.8313 13.1262L20.8303 13.1252L22.4113 11.9006L22.4123 11.9016Z" fill="#0047FF"/>
<path d="M5.84884 0.118388C6.26095 -0.00642541 6.69811 -0.0290274 7.1213 0.0519816L7.14278 0.0558878L13.1174 1.26878L13.1184 1.2678C13.1209 1.26828 13.1237 1.27018 13.1262 1.27073L13.1408 1.27268L13.1399 1.27366C13.9312 1.43023 14.6375 1.86758 15.1301 2.50413L17.8068 5.96018L16.5422 7.593L13.55 3.72874C13.3507 3.47052 13.0638 3.29387 12.7434 3.23265L6.74532 2.01585C6.64027 1.99575 6.53129 2.00146 6.42892 2.03245C6.32742 2.06329 6.23425 2.11848 6.15841 2.19261L6.10567 2.25218C6.05637 2.31516 6.01874 2.38714 5.99532 2.46409L5.97677 2.54222C5.96305 2.62118 5.9638 2.70264 5.9797 2.78147L7.1965 8.77952C7.25775 9.09986 7.43442 9.38688 7.69259 9.58616L11.0188 12.1653L11.2902 12.3703L11.5617 12.5823L12.258 13.1223L11.0334 14.7033L10.3361 14.1633L10.3313 14.1584L10.0852 13.966L9.81368 13.761L9.80294 13.7532L9.79317 13.7463L6.467 11.1672C5.83081 10.6747 5.39405 9.96706 5.23751 9.17601L5.23653 9.17698L4.01974 3.17893L4.01876 3.17698C3.93105 2.74207 3.95601 2.2973 4.08126 1.88401L4.08224 1.88206C4.20857 1.46688 4.43597 1.08529 4.74825 0.774638L4.75997 0.762919C5.0648 0.464882 5.4391 0.24279 5.84884 0.118388Z" fill="#0047FF"/>
<path d="M26.1641 1.02734C26.434 0.977177 26.7071 0.997187 26.96 1.07617H26.9609C27.1511 1.1357 27.3306 1.22906 27.4893 1.35352L27.6406 1.48828L27.6855 1.53711L27.7383 1.59766C27.7491 1.61005 27.7603 1.62283 27.7705 1.63574C27.8915 1.78949 27.9881 1.96792 28.0498 2.16504V2.16602C28.131 2.42595 28.146 2.69892 28.0977 2.96094C28.0966 2.96682 28.0949 2.97266 28.0938 2.97852L26.873 8.97559L26.8721 8.97461C26.7794 9.45996 26.5367 9.90218 26.1777 10.2373L26.0146 10.376L14.9512 18.9453L15.5449 19.5391C15.9798 19.9751 16.223 20.566 16.2227 21.1807C16.2222 21.7945 15.979 22.3852 15.543 22.8213C15.1068 23.2574 14.5161 23.5005 13.9023 23.501C13.2875 23.5014 12.6968 23.2581 12.2607 22.8232L11.4092 21.9717L8.67188 24.709C8.85268 25.0449 8.95026 25.4228 8.9502 25.8105V25.8115C8.94977 26.3486 8.76319 26.8678 8.4248 27.2812L8.27051 27.4521C7.83567 27.887 7.24548 28.1323 6.62988 28.1328C6.01299 28.1333 5.42298 27.8876 4.98828 27.4541L1.68066 24.1465L1.68164 24.1455C1.51997 23.9842 1.38193 23.8013 1.27441 23.6006L1.17676 23.3936C1.06029 23.1124 0.999632 22.8103 1 22.5039C1.00026 22.0463 1.13576 21.5967 1.3916 21.2139L1.49219 21.0742C1.73913 20.7585 2.06384 20.5126 2.43359 20.3594C2.85798 20.1836 3.32458 20.1383 3.77441 20.2275H3.77539C4.00035 20.2723 4.21689 20.3497 4.41797 20.457L7.15625 17.7188L6.30762 16.8701V16.8691C6.14626 16.708 6.00881 16.5248 5.90137 16.3242L5.80371 16.1172C5.68725 15.8361 5.62659 15.5339 5.62695 15.2275C5.62722 14.7674 5.76508 14.3182 6.01953 13.9375L6.12012 13.7979C6.36608 13.4833 6.68989 13.2367 7.06055 13.083L7.22168 13.0234C7.60188 12.898 8.00936 12.8728 8.40332 12.9512C8.85263 13.0406 9.26658 13.2609 9.5918 13.5859L10.1797 14.1738L18.75 3.11133C19.0962 2.66422 19.5951 2.35828 20.1514 2.25195L26.1475 1.03125L26.1641 1.02734Z" stroke="#FF59EE" stroke-width="2" stroke-linejoin="round"/>
</svg>
