<svg width="30" height="30" viewBox="0 0 30 30" fill="none" xmlns="http://www.w3.org/2000/svg">
<path d="M27.7815 13.2097C29.4062 13.8504 29.4062 16.1496 27.7815 16.7903L20.6767 19.5925C20.1807 19.7881 19.7881 20.1807 19.5925 20.6767L16.7903 27.7815C16.1496 29.4062 13.8504 29.4062 13.2097 27.7815L10.4075 20.6767C10.2119 20.1807 9.8193 19.7881 9.3233 19.5925L2.21846 16.7903C0.59385 16.1496 0.59385 13.8504 2.21846 13.2097L9.3233 10.4075C9.8193 10.2119 10.2119 9.8193 10.4075 9.3233L13.2097 2.21845C13.8504 0.593847 16.1496 0.593848 16.7903 2.21846L19.5925 9.3233C19.7881 9.8193 20.1807 10.2119 20.6767 10.4075L27.7815 13.2097Z" stroke="#FF80F2" stroke-width="2"/>
</svg>
