<svg width="200" height="41" viewBox="0 0 200 41" fill="none" xmlns="http://www.w3.org/2000/svg">
<path d="M159.117 11.9053C161.912 11.9053 164.224 12.3021 166.053 13.0957C166.812 13.4407 167.312 13.8207 167.554 14.2002C167.795 14.597 167.917 15.1316 167.917 15.7871V18.4277C167.917 19.7043 167.364 20.3428 166.26 20.3428C165.811 20.3427 164.949 20.1871 163.689 19.8594C162.43 19.5316 161.222 19.376 160.101 19.376C157.927 19.376 156.201 20.0152 154.924 21.292C153.647 22.5687 153.009 24.1905 153.009 26.1572C153.009 28.1241 153.613 29.7457 154.855 31.0225C156.081 32.2993 157.771 32.9385 159.945 32.9385C161.429 32.9385 162.844 32.7822 164.173 32.4717C165.5 32.1614 166.276 32.0061 166.467 32.0059C167.433 32.0059 167.917 32.7141 167.917 34.1289V36.5615C167.917 37.2171 167.795 37.7516 167.554 38.1484C167.312 38.5453 166.812 38.9251 166.053 39.2529C164.293 39.9948 161.929 40.375 158.962 40.375C155.132 40.375 151.784 39.0463 148.92 36.4238C146.056 33.784 144.624 30.3669 144.624 26.1396C144.624 21.8953 146.056 18.4614 148.938 15.8389C151.819 13.2165 155.201 11.9053 159.117 11.9053ZM123.919 11.9053C125.886 11.9053 127.715 12.2846 129.405 13.0264C131.096 13.7683 132.408 14.7001 133.34 15.7871C134.03 14.7521 134.824 13.9414 135.721 13.3203C136.618 12.7337 137.429 12.4229 138.153 12.4229C139.223 12.4229 139.758 13.044 139.758 14.2861V37.9932C139.758 39.2354 139.223 39.8564 138.153 39.8564C137.429 39.8564 136.618 39.5462 135.721 38.9424C134.824 38.3386 134.03 37.5106 133.34 36.4756C132.408 37.5798 131.096 38.511 129.405 39.2529C127.714 39.9948 125.886 40.3574 123.919 40.3574C119.881 40.3574 116.586 39.0285 114.032 36.3369C111.479 33.6625 110.202 30.2464 110.202 26.1055C110.202 22.0335 111.479 18.6513 114.05 15.9424C116.621 13.2683 119.916 11.9053 123.919 11.9053ZM84.8379 0C85.8731 0 86.3906 0.621094 86.3906 1.86328V14.6484C88.3231 12.8195 90.8771 11.9053 94.0518 11.9053C97.7095 11.9053 100.66 13.1818 102.903 15.7354C105.008 18.1854 106.061 21.8262 106.061 26.6572V36.5957C106.061 37.5962 105.836 38.3036 105.405 38.7178C104.974 39.1319 104.266 39.3389 103.3 39.3389H100.505C99.5387 39.3389 98.8308 39.1319 98.3994 38.7178C97.9683 38.3036 97.7441 37.5961 97.7441 36.5957V26.916C97.7441 24.4662 97.3128 22.6892 96.4502 21.585C95.5185 20.3773 94.1211 19.7735 92.2578 19.7734C90.3944 19.7734 88.9444 20.3772 87.9092 21.585C86.8741 22.7927 86.3565 24.5525 86.3564 26.8643V36.5957C86.3564 37.5619 86.1495 38.2698 85.7354 38.7012C85.3212 39.1324 84.6138 39.3564 83.6133 39.3564H80.8184C79.8176 39.3564 79.1094 39.1498 78.6953 38.7012C78.2812 38.2698 78.0742 37.5791 78.0742 36.5957V10.3525C78.0742 7.28144 78.7822 4.77976 80.1797 2.88184C81.5772 0.984004 83.1471 0.000119442 84.8379 0ZM180.029 0C181.064 0.000180066 181.582 0.621274 181.582 1.86328V23.293L190.019 14.9072C190.812 14.1135 191.486 13.5791 192.038 13.3203C192.59 13.0616 193.453 12.9229 194.626 12.9229H198.404C199.06 12.9229 199.474 13.1653 199.646 13.6484C199.819 14.1314 199.664 14.5974 199.181 15.0459L189.863 24.3105L199.595 37.165C200.043 37.7516 200.113 38.2695 199.837 38.6836C199.544 39.1149 199.025 39.3389 198.301 39.3389H194.419C192.694 39.3389 191.244 38.5971 190.07 37.1133L184.325 29.8154L181.582 32.5586V36.5957C181.582 37.5619 181.375 38.2698 180.961 38.7012C180.547 39.1325 179.839 39.3564 178.838 39.3564H176.043C175.042 39.3564 174.335 39.1496 173.921 38.7012C173.507 38.2698 173.3 37.5792 173.3 36.5957V10.3525C173.3 7.28141 173.99 4.77976 175.388 2.88184C176.785 0.966635 178.321 0 180.029 0ZM24.0693 3.10547C25.0701 3.10547 25.7773 3.33037 26.1914 3.76172C26.6055 4.19305 26.8125 4.90011 26.8125 5.86621V8.24707C26.8125 9.2133 26.6055 9.92086 26.1914 10.335C25.7773 10.7663 25.0701 10.9912 24.0693 10.9912H8.69629V19.2207H21.4814C22.4473 19.2207 23.1373 19.428 23.5859 19.8418C24.0173 20.2559 24.2422 20.9641 24.2422 21.9648V24.3281C24.2422 25.3289 24.0173 26.0361 23.5859 26.4502C23.1546 26.8642 22.4476 27.0713 21.4814 27.0713H8.69629V36.5957C8.69629 37.5964 8.47139 38.3037 8.04004 38.7178C7.60871 39.1318 6.90169 39.3388 5.93555 39.3389H2.74316C1.74255 39.3388 1.03516 39.1322 0.621094 38.6836C0.207088 38.2523 6.75487e-05 37.5623 0 36.5791V5.84961C0 4.8834 0.207012 4.19275 0.621094 3.74414C1.03516 3.33008 1.74255 3.1055 2.74316 3.10547H24.0693ZM47.6211 3.10547C49.4845 3.10547 50.692 3.96893 51.2441 5.69434L61.8555 36.3369C62.5456 38.3384 61.8556 39.3389 59.7852 39.3389H56.8867C55.6099 39.3389 54.6609 39.1146 54.0742 38.666C53.4704 38.2174 52.9697 37.4238 52.6074 36.2852L51.21 31.7822H37.5449L36.0957 36.2852C35.7161 37.4584 35.1807 38.2695 34.5078 38.6836C33.8349 39.1148 32.7482 39.3388 31.2646 39.3389H29.1426C27.0721 39.3389 26.3811 38.3384 27.0713 36.3369L37.6826 5.69434C38.2693 3.96893 39.4777 3.10547 41.3066 3.10547H47.6211ZM125.058 19.376C123.229 19.376 121.692 20.0145 120.45 21.2568C119.208 22.5163 118.587 24.1556 118.587 26.1396C118.587 28.1409 119.208 29.7802 120.45 31.0225C121.692 32.282 123.229 32.9209 125.058 32.9209C126.886 32.9209 128.405 32.2992 129.647 31.0225C130.872 29.763 131.476 28.1409 131.476 26.1396C131.476 24.1384 130.855 22.5163 129.647 21.2568C128.422 19.9973 126.886 19.376 125.058 19.376ZM45.9785 9.36328C45.4781 8.09437 43.6821 8.09437 43.1816 9.36328L40.9932 14.9121C40.8404 15.2994 40.5338 15.606 40.1465 15.7588L34.5967 17.9482C33.3285 18.4489 33.3284 20.2435 34.5967 20.7441L40.1465 22.9326C40.5339 23.0854 40.8404 23.3929 40.9932 23.7803L43.1816 29.3291C43.6821 30.598 45.4781 30.598 45.9785 29.3291L48.167 23.7803C48.3198 23.3929 48.6263 23.0854 49.0137 22.9326L54.5635 20.7441C55.832 20.2436 55.8319 18.4488 54.5635 17.9482L49.0137 15.7588C48.6265 15.6059 48.3197 15.2994 48.167 14.9121L45.9785 9.36328Z" fill="#FF3AEB"/>
</svg>
